#!OML:ASF X:\für Bonn\!DataBase\2005_08_12_Daniel\c3d\Daniel.ASF
:FULLY-SPECIFIED
:DEGREES
136
root 0.856901 17.3991 -16.9003 368.531 12.781 2.8775
lowerback 68.0973 -5.04095 11.6259
upperback 11.8512 2.5169 -1.6321
thorax -7.21941 1.75594 -7.70304
lowerneck 6.28087 -8.26966 0.377151
upperneck 4.3091 -10.851 5.75814
head 0.622095 -5.33244 1.84859
rclavicle 3.81667e-014 3.26007e-014
rhumerus 225.7 -158.012 -271.166
rradius 3.78517
rwrist 35.7361
rhand -25.267 8.03562
rfingers 7.12502
rthumb 1.25366 -21.9404
lclavicle 3.81667e-014 3.26007e-014
lhumerus -29.6538 -14.3315 88.7668
lradius 50.5532
lwrist 0.303539
lhand -9.8605 -6.37808
lfingers 7.12502
lthumb 16.118 22.9717
rfemur -33.5601 -3.32056 11.1797
rtibia 38.5348
rfoot -13.8164 -5.94483
rtoes -10.6652
lfemur -38.3607 -13.516 -17.5698
ltibia 38.9315
lfoot -8.86063 -5.30095
ltoes -11.3096
137
root 0.847294 17.3748 -16.912 368.96 12.8583 3.10349
lowerback 68.812 -5.17873 11.6678
upperback 11.7062 2.50524 -1.67655
thorax -7.34551 1.74979 -7.74919
lowerneck 6.07952 -8.31287 0.321502
upperneck 4.21435 -10.9156 5.76526
head 0.631033 -5.36558 1.85283
rclavicle 1.27222e-014 1.23246e-014
rhumerus 226.531 -157.969 -271.006
rradius 3.66079
rwrist 35.5552
rhand -25.5934 7.77429
rfingers 7.12502
rthumb 0.938483 -22.2034
lclavicle 1.27222e-014 1.23246e-014
lhumerus -29.819 -14.3884 88.9118
lradius 50.2784
lwrist 0.326452
lhand -9.89169 -6.49832
lfingers 7.12502
lthumb 16.0879 22.8539
rfemur -34.4831 -3.55864 10.9911
rtibia 39.3152
rfoot -13.9758 -5.82566
rtoes -10.6641
lfemur -39.1126 -13.2129 -17.7775
ltibia 39.3479
lfoot -8.84591 -5.71135
ltoes -11.2081
138
root 0.838744 17.349 -16.923 369.359 12.9659 3.32609
lowerback 69.5386 -5.33937 11.7102
upperback 11.5523 2.47866 -1.70019
thorax -7.47911 1.73472 -7.76435
lowerneck 5.8698 -8.33742 0.132902
upperneck 4.16309 -10.9663 5.8472
head 0.6667 -5.39247 1.90064
rclavicle 2.8625e-014 -3.4191e-014
rhumerus 227.314 -157.924 -270.775
rradius 3.52579
rwrist 35.4108
rhand -25.9147 7.57957
rfingers 7.12502
rthumb 0.628176 -22.3993
lclavicle 2.8625e-014 -3.4191e-014
lhumerus -30.0007 -14.4214 89.0787
lradius 50.0512
lwrist 0.406794
lhand -9.8974 -6.64843
lfingers 7.12502
lthumb 16.0825 22.7042
rfemur -35.3772 -3.85459 10.8141
rtibia 40.1202
rfoot -14.1393 -5.65594
rtoes -10.7304
lfemur -39.8443 -12.9474 -17.9922
ltibia 39.7897
lfoot -8.87754 -6.11998
ltoes -11.1794
139
root 0.829781 17.3209 -16.9332 369.792 13.0684 3.55275
lowerback 70.1902 -5.48097 11.7449
upperback 11.4119 2.4558 -1.72912
thorax -7.59862 1.7225 -7.78606
lowerneck 5.74865 -8.36402 0.00269488
upperneck 4.02422 -11.0094 5.9156
head 0.65601 -5.41836 1.94121
rclavicle -3.81667e-014 3.29983e-014
rhumerus 228.099 -157.874 -270.578
rradius 3.35632
rwrist 35.2356
rhand -26.3232 7.38013
rfingers 7.12502
rthumb 0.233557 -22.5995
lclavicle -3.81667e-014 3.29983e-014
lhumerus -30.1547 -14.4403 89.2499
lradius 49.8245
lwrist 0.507721
lhand -9.92387 -6.75644
lfingers 7.12502
lthumb 16.057 22.5982
rfemur -36.311 -4.11154 10.6297
rtibia 40.9392
rfoot -14.3268 -5.53903
rtoes -10.7268
lfemur -40.6209 -12.6076 -18.2377
ltibia 40.2571
lfoot -8.90191 -6.57628
ltoes -11.1583
140
root 0.820903 17.293 -16.9412 370.195 13.1587 3.79548
lowerback 70.827 -5.60051 11.7434
upperback 11.2886 2.43235 -1.74769
thorax -7.70024 1.7107 -7.78146
lowerneck 5.62967 -8.38316 -0.151812
upperneck 3.91547 -11.0444 5.96887
head 0.654723 -5.43954 1.9803
rclavicle 3.49861e-014 -8.34896e-015
rhumerus 228.867 -157.836 -270.377
rradius 3.18061
rwrist 35.0276
rhand -26.7715 7.25796
rfingers 7.12502
rthumb -0.199397 -22.7217
lclavicle 3.49861e-014 -8.34896e-015
lhumerus -30.291 -14.4416 89.43
lradius 49.6117
lwrist 0.703204
lhand -9.98636 -6.86767
lfingers 7.12502
lthumb 15.9968 22.4919
rfemur -37.2126 -4.37337 10.4299
rtibia 41.776
rfoot -14.5238 -5.40387
rtoes -10.8382
lfemur -41.3587 -12.2984 -18.5005
ltibia 40.7415
lfoot -8.93805 -7.0162
ltoes -11.0695
141
root 0.812659 17.2641 -16.9492 370.607 13.2686 4.04148
lowerback 71.4495 -5.7417 11.7563
upperback 11.1338 2.39519 -1.77445
thorax -7.8368 1.69015 -7.78736
lowerneck 5.63242 -8.39157 -0.311075
upperneck 3.76158 -11.06 6.06363
head 0.62128 -5.45375 2.04055
rclavicle 5.725e-014 3.26007e-014
rhumerus 229.582 -157.788 -270.149
rradius 2.97952
rwrist 34.797
rhand -27.2141 7.13835
rfingers 7.12502
rthumb -0.6269 -22.8405
lclavicle 5.725e-014 3.26007e-014
lhumerus -30.478 -14.4714 89.6074
lradius 49.4408
lwrist 0.930485
lhand -9.98816 -6.93963
lfingers 7.12502
lthumb 15.995 22.42
rfemur -38.1243 -4.60095 10.2143
rtibia 42.627
rfoot -14.7455 -5.31818
rtoes -10.8383
lfemur -42.1152 -12.0146 -18.7672
ltibia 41.2403
lfoot -8.99722 -7.46329
ltoes -11.0323
142
root 0.80489 17.2334 -16.9558 371.016 13.3763 4.2839
lowerback 72.0109 -5.8729 11.7647
upperback 11.0174 2.3567 -1.79801
thorax -7.9313 1.67314 -7.78779
lowerneck 5.53082 -8.40898 -0.406344
upperneck 3.65386 -11.0881 6.09616
head 0.612692 -5.47079 2.06429
rclavicle -1.27222e-014 -7.43455e-014
rhumerus 230.304 -157.735 -269.948
rradius 2.80365
rwrist 34.5384
rhand -27.6569 6.99023
rfingers 7.12502
rthumb -1.05456 -22.9869
lclavicle -1.27222e-014 -7.43455e-014
lhumerus -30.6186 -14.5273 89.7871
lradius 49.3136
lwrist 1.24476
lhand -10.0435 -6.88128
lfingers 7.12502
lthumb 15.9418 22.4826
rfemur -39.0338 -4.85784 10.0172
rtibia 43.4874
rfoot -14.9471 -5.21914
rtoes -10.9939
lfemur -42.881 -11.72 -19.0433
ltibia 41.7583
lfoot -9.0446 -7.90685
ltoes -10.9242
143
root 0.796614 17.2006 -16.9618 371.417 13.4747 4.54279
lowerback 72.6219 -5.98479 11.7491
upperback 10.8506 2.3324 -1.81646
thorax -8.07994 1.6556 -7.77966
lowerneck 5.47426 -8.43052 -0.533552
upperneck 3.57165 -11.1226 6.15817
head 0.60866 -5.49095 2.10425
rclavicle 0 -1.17283e-014
rhumerus 230.903 -157.65 -269.706
rradius 2.69404
rwrist 34.2987
rhand -28.1399 6.8948
rfingers 7.12502
rthumb -1.521 -23.0795
lclavicle 0 -1.17283e-014
lhumerus -30.8123 -14.6072 89.9972
lradius 49.2261
lwrist 1.56411
lhand -10.0922 -6.83915
lfingers 7.12502
lthumb 15.8949 22.5285
rfemur -39.9358 -5.10561 9.79629
rtibia 44.3606
rfoot -15.1773 -5.10522
rtoes -10.9983
lfemur -43.6311 -11.4277 -19.3433
ltibia 42.2952
lfoot -9.12827 -8.36425
ltoes -10.9583
144
root 0.789002 17.168 -16.9668 371.796 13.5942 4.77332
lowerback 73.2568 -6.11751 11.7352
upperback 10.6624 2.29341 -1.83324
thorax -8.2505 1.62925 -7.76365
lowerneck 5.43333 -8.44157 -0.544827
upperneck 3.47777 -11.1345 6.09266
head 0.582872 -5.49878 2.0857
rclavicle 3.49861e-014 -5.1684e-015
rhumerus 231.44 -157.609 -269.48
rradius 2.65325
rwrist 34.093
rhand -28.5754 6.66426
rfingers 7.12502
rthumb -1.94167 -23.3067
lclavicle 3.49861e-014 -5.1684e-015
lhumerus -31.0125 -14.6401 90.1997
lradius 49.1694
lwrist 1.9543
lhand -10.103 -6.79019
lfingers 7.12502
lthumb 15.8845 22.5783
rfemur -40.8129 -5.34033 9.6078
rtibia 45.2322
rfoot -15.4294 -5.00782
rtoes -11.1986
lfemur -44.377 -11.1365 -19.6247
ltibia 42.8553
lfoot -9.22106 -8.82416
ltoes -10.9312
145
root 0.781896 17.1336 -16.9708 372.181 13.6985 5.01579
lowerback 73.894 -6.24511 11.727
upperback 10.4572 2.26247 -1.86399
thorax -8.43685 1.60609 -7.77054
lowerneck 5.41446 -8.45714 -0.599019
upperneck 3.39495 -11.1553 6.13077
head 0.566212 -5.51161 2.10798
rclavicle -2.22639e-014 -2.88238e-014
rhumerus 231.918 -157.525 -269.253
rradius 2.66002
rwrist 33.839
rhand -29.0228 6.47743
rfingers 7.12502
rthumb -2.37375 -23.4891
lclavicle -2.22639e-014 -2.88238e-014
lhumerus -31.2312 -14.7235 90.4003
lradius 49.2005
lwrist 2.29754
lhand -10.0979 -6.61646
lfingers 7.12502
lthumb 15.8894 22.7517
rfemur -41.6914 -5.56758 9.40441
rtibia 46.1107
rfoot -15.6684 -4.93364
rtoes -11.225
lfemur -45.13 -10.8451 -19.9325
ltibia 43.4366
lfoot -9.32993 -9.27491
ltoes -10.9783
146
root 0.774867 17.0987 -16.9737 372.551 13.8027 5.24505
lowerback 74.5271 -6.35671 11.695
upperback 10.253 2.23199 -1.88723
thorax -8.62301 1.58203 -7.76009
lowerneck 5.35252 -8.47205 -0.570907
upperneck 3.34909 -11.172 6.05334
head 0.556249 -5.51961 2.07688
rclavicle 3.81667e-014 -1.94809e-014
rhumerus 232.376 -157.457 -269.028
rradius 2.65535
rwrist 33.5894
rhand -29.472 6.25429
rfingers 7.12502
rthumb -2.80757 -23.707
lclavicle 3.81667e-014 -1.94809e-014
lhumerus -31.4714 -14.8809 90.6075
lradius 49.3233
lwrist 2.77088
lhand -10.1332 -6.39642
lfingers 7.12502
lthumb 15.8553 22.9744
rfemur -42.554 -5.75961 9.20545
rtibia 46.9896
rfoot -15.9282 -4.88287
rtoes -11.3731
lfemur -45.8769 -10.5535 -20.2277
ltibia 44.0395
lfoot -9.43686 -9.72929
ltoes -10.8759
147
root 0.768877 17.0622 -16.9766 372.882 13.9194 5.46651
lowerback 75.1638 -6.48324 11.6809
upperback 10.0731 2.20289 -1.90036
thorax -8.77522 1.562 -7.74377
lowerneck 5.27853 -8.48253 -0.656247
upperneck 3.26471 -11.1901 6.08229
head 0.549393 -5.53107 2.0986
rclavicle -9.54166e-015 1.43125e-014
rhumerus 232.822 -157.393 -268.811
rradius 2.74245
rwrist 33.3438
rhand -29.861 5.96761
rfingers 7.12502
rthumb -3.18317 -23.9884
lclavicle -9.54166e-015 1.43125e-014
lhumerus -31.6918 -15.0323 90.8235
lradius 49.5318
lwrist 3.18578
lhand -10.1337 -6.19373
lfingers 7.12502
lthumb 15.8549 23.1771
rfemur -43.3721 -5.98376 9.02047
rtibia 47.8802
rfoot -16.2127 -4.80019
rtoes -11.5208
lfemur -46.5984 -10.3094 -20.5133
ltibia 44.6613
lfoot -9.55036 -10.1668
ltoes -10.8211
148
root 0.76205 17.0234 -16.9786 373.244 14.0117 5.71071
lowerback 75.7845 -6.55437 11.6057
upperback 9.85683 2.18601 -1.89998
thorax -8.97632 1.53926 -7.69639
lowerneck 5.2235 -8.4887 -0.717068
upperneck 3.25012 -11.2013 6.05383
head 0.556123 -5.53669 2.09716
rclavicle 6.04305e-014 -7.95139e-015
rhumerus 233.185 -157.322 -268.549
rradius 2.79825
rwrist 33.0974
rhand -30.2367 5.67366
rfingers 7.12502
rthumb -3.54607 -24.2766
lclavicle 6.04305e-014 -7.95139e-015
lhumerus -31.9859 -15.2022 91.0599
lradius 49.7949
lwrist 3.63502
lhand -10.15 -6.01922
lfingers 7.12502
lthumb 15.8392 23.3529
rfemur -44.2431 -6.20612 8.82023
rtibia 48.7823
rfoot -16.4446 -4.7341
rtoes -11.7413
lfemur -47.3524 -10.0433 -20.8269
ltibia 45.3048
lfoot -9.69625 -10.5931
ltoes -10.8692
